<?xml version="1.0" encoding="UTF-8"?>
<svg width="400px" height="400px" viewBox="0 0 400 400" version="1.1" xmlns="http://www.w3.org/2000/svg" xmlns:xlink="http://www.w3.org/1999/xlink">
    <title>Hyphen-Black</title>
    <defs>
        <path d="M0,0 L400,0 L400,400 L0,400 L0,0 Z" id="path-1"></path>
    </defs>
    <g id="Hyphen-Black" stroke="none" fill="none" xlink:href="#path-1" fill-rule="evenodd">
        <use fill="#AD2118" xlink:href="#path-1"></use>
        <g id="Calque_3" stroke-width="1" transform="translate(49.3234, 49.5182)">
            <path d="M300.446538,150.000278 C300.446538,232.936041 233.159032,300 150.223269,300 C67.2875058,300 0,232.712494 0,150.000278 C0,67.2880612 67.2875058,0 150.223269,0 C233.159032,-0.22299113 300.446538,67.0645147 300.446538,150.000278 Z" id="Path" fill="#AD2118" fill-rule="nonzero"></path>
            <path d="M214.828216,67.0645147 C214.828216,62.8171306 210.133739,57.0049208 208.345367,50.5220714 C208.345367,50.5220714 200.744785,50.7456179 192.920656,51.4162575 C185.096528,51.8633506 180.402051,55.8871882 180.402051,55.8871882 C179.060771,57.8991069 175.484027,60.5816653 175.484027,60.5816653 C174.589841,61.699398 170.342457,65.7232355 170.342457,65.7232355 C170.342457,65.7232355 170.566003,67.2880612 170.11891,69.7470731 C169.895364,72.2060849 167.883445,77.7947482 168.106991,81.5950392 C168.106991,84.2775976 171.460189,87.6307956 171.460189,87.6307956 C176.378213,88.3014351 186.437807,88.5249817 186.437807,88.5249817 C186.437807,88.5249817 185.767167,91.20754 184.649435,93.6665519 C183.531702,96.1255637 176.378213,97.2432964 176.378213,97.2432964 C176.378213,97.2432964 179.731411,103.055506 180.849144,105.738065 C181.966876,108.420623 185.543621,110.879635 185.543621,110.879635 C191.579377,121.386322 194.709028,127.198532 194.709028,132.787195 C194.709028,138.375858 191.132284,145.082254 191.132284,145.082254 C191.132284,149.106092 188.449726,154.024115 185.767167,157.60086 C183.308155,161.177604 181.519783,163.860163 180.178504,166.319174 C178.837225,168.778186 176.601759,172.578477 175.26048,175.037489 C173.919201,177.496501 171.013096,180.402606 169.44827,181.520339 C167.883445,182.638071 168.106991,183.532257 168.106991,183.532257 C168.106991,183.532257 173.025015,189.79156 173.025015,192.697665 C173.025015,194.262491 172.354375,195.156677 172.354375,198.062782 C172.354375,203.204352 174.366294,204.769178 174.366294,204.769178 C177.048853,204.322085 177.719492,205.216271 179.284318,206.334004 C181.966876,207.675283 186.661353,210.581388 188.002633,211.475574 C189.567458,212.36976 200.297692,220.417435 202.98025,222.205807 C205.439262,223.994179 208.568913,223.994179 211.251472,225.559005 C212.816298,226.676738 217.510775,226.676738 217.510775,231.371215 C217.510775,235.171506 211.922111,244.56046 208.79246,248.360751 C207.227634,250.37267 204.545076,251.04331 204.545076,251.04331 C200.074145,256.408426 198.732866,256.18488 198.732866,256.18488 C197.16804,256.18488 194.709028,256.631973 192.69711,257.079066 C188.673272,257.973252 185.543621,256.85552 182.413969,257.079066 C178.613678,257.749706 176.378213,257.302613 174.142748,257.079066 C171.907282,256.85552 162.518328,257.526159 156.259025,257.526159 C149.999722,257.526159 150.670362,257.526159 147.54071,257.079066 C144.411059,256.631973 141.952047,255.067147 140.610768,254.843601 C138.822396,254.843601 135.469198,255.067147 132.786639,253.725868 C130.104081,252.384589 126.30379,251.04331 121.832859,250.596217 C117.585475,249.925577 116.467743,249.702031 114.67937,246.572379 C112.890998,243.442728 104.843323,230.253482 92.3247173,213.711039 C79.582565,197.168596 73.3232622,186.885455 72.2055295,183.085164 C71.0877969,179.284873 68.8523315,167.213361 68.628785,159.836325 C68.628785,152.45929 68.4052385,143.740975 68.4052385,135.6933 C68.4052385,127.645625 70.4171573,126.080799 70.8642503,123.398241 C71.3113434,117.809577 72.429076,116.468298 72.8761691,114.232833 C72.6526226,111.103181 73.5468087,108.644169 73.5468087,108.644169 C76.6764601,106.185158 85.3947748,94.7842845 92.5482638,90.0898074 C98.5840202,85.6188768 109.761347,87.6307956 117.809022,85.1717837 C114.008731,80.9243996 108.867161,79.3595739 104.39623,79.3595739 C99.9252994,79.3595739 97.9133806,80.7008531 97.689834,79.806667 C97.4662875,78.9124808 101.266579,77.7947482 102.384311,76.2299225 C104.172683,73.9944572 106.408149,74.2180037 109.314254,72.2060849 C109.314254,72.2060849 118.032568,73.9944572 124.962511,76.453469 C131.668907,78.9124808 134.351465,78.2418413 134.351465,78.2418413 C157.600304,57.6755604 177.272399,43.1450359 177.272399,43.1450359 C186.437807,41.1331171 204.768622,39.5682914 204.768622,39.5682914 C204.768622,39.5682914 207.227634,40.686024 210.580832,40.9095706 C214.157577,41.1331171 214.381123,42.6979428 214.381123,42.6979428 C215.945949,45.6040477 217.287228,45.8275943 218.404961,47.39242 C220.41688,50.9691645 226.005543,54.993002 226.005543,59.4639326 C226.005543,66.1703286 222.652345,76.6770155 222.652345,76.6770155 C222.652345,76.6770155 218.181414,77.3476551 214.60467,77.3476551 L208.345367,77.3476551 C205.662809,77.3476551 205.439262,76.2299225 205.439262,76.2299225 C205.439262,76.2299225 212.369204,71.3118988 214.828216,67.0645147 L214.828216,67.0645147 Z M162.071235,100.149401 C156.482572,101.937774 155.588386,107.749983 148.434897,107.749983 C141.281408,107.749983 137.481117,107.526437 136.58693,104.620332 C135.692744,101.714227 135.469198,101.043587 133.010186,99.0316686 C101.266579,99.0316686 88.7479728,103.949692 83.3828561,121.386322 C83.3828561,121.386322 83.6064026,123.621787 82.7122165,128.092718 C81.8180303,132.563648 81.1473908,142.623242 80.9238442,147.988359 C80.7002977,153.353476 80.7002977,177.049408 80.7002977,177.049408 C80.7002977,177.049408 103.502044,211.922667 116.02065,227.347377 C118.703208,231.147668 123.844778,238.748251 131.892453,239.865983 C139.940128,240.983716 147.093617,240.760169 156.706118,241.877902 C166.318619,242.772088 181.519783,242.324995 192.02647,234.27732 C192.02647,234.27732 192.02647,232.712494 193.591296,232.488948 C193.591296,232.488948 191.579377,230.924122 188.002633,228.241564 C184.202342,225.335459 181.519783,223.099993 179.507864,222.205807 C177.495946,221.311621 175.93112,221.088075 175.036934,219.299702 C173.919201,217.51133 171.236643,215.499411 169.44827,215.722958 C167.659898,215.946504 164.97734,216.84069 164.97734,214.605225 C164.97734,212.36976 164.753793,207.675283 164.753793,204.322085 C164.753793,200.968887 165.647979,196.050863 164.083154,194.262491 C162.518328,192.697665 161.177049,192.474119 160.506409,189.568014 C160.059316,186.885455 158.941584,180.402606 160.059316,178.614234 C161.177049,177.049408 164.97734,171.460745 166.542166,168.107547 C168.106991,164.754349 182.190423,148.658999 182.190423,136.140393 C182.637516,124.06888 167.883445,107.079344 162.071235,100.149401 Z" id="Shape" fill="#FFFFFF" fill-rule="nonzero"></path>
            <path d="M115.573557,211.475574 C115.573557,211.475574 116.467743,210.357841 117.361929,211.252027 C118.256115,212.146213 118.926754,212.593306 118.926754,212.593306 C118.926754,212.593306 119.373848,210.357841 115.126463,205.216271 C115.126463,205.216271 113.561638,203.204352 112.890998,201.639526 C112.220359,200.074701 110.879079,198.286328 109.314254,195.827317 C107.749428,193.368305 107.749428,192.697665 106.631695,188.673828 C105.737509,184.64999 101.713672,176.602315 101.713672,176.602315 C101.713672,176.602315 101.490125,175.037489 101.043032,173.02557 C100.595939,170.790105 99.0311132,166.319174 99.0311132,162.74243 C99.0311132,158.942139 99.4782063,154.024115 99.4782063,149.329638 C99.4782063,144.635161 99.2546598,141.058416 99.9252994,139.493591 C100.595939,137.928765 100.372392,134.575567 101.043032,133.681381 L105.06687,128.316264 C105.06687,128.316264 106.184602,128.316264 109.761347,127.422078 C113.338091,126.527892 125.186057,123.174694 130.551174,123.174694 C135.916291,123.174694 145.305245,125.186613 147.764257,125.410159 C150.223269,125.633706 152.905827,127.422078 155.364839,129.433997 C157.823851,131.445916 160.059316,132.787195 160.059316,132.787195 C160.059316,132.787195 160.506409,133.681381 159.612223,135.246207 C158.718037,136.811032 158.047397,138.375858 157.823851,139.493591 C157.823851,139.493591 154.917746,145.529347 152.682281,149.329638 C149.776176,154.247662 148.658443,158.047953 148.658443,158.047953 C148.658443,158.047953 146.646524,161.848244 144.858152,166.095628 C143.06978,170.343012 142.175594,173.02557 140.834315,175.484582 C140.610768,176.155222 139.940128,179.50842 140.834315,185.32063 C141.728501,191.132839 141.504954,190.685746 142.39914,193.144758 C143.293326,195.827317 145.752338,207.451736 152.905827,221.311621 C152.905827,221.311621 152.011641,221.982261 150.446815,221.311621 C147.987804,220.417435 147.987804,219.076156 146.199431,217.958423 C144.411059,216.84069 143.06978,215.946504 140.834315,213.263946 C138.151756,210.357841 137.481117,207.451736 135.469198,206.110457 C135.469198,206.110457 135.245651,204.098538 133.904372,200.968887 C132.563093,197.839235 128.539255,191.132839 126.750883,188.003188 C125.186057,184.873537 122.056406,179.50842 119.597394,175.484582 C117.138382,171.460745 117.138382,170.566559 117.138382,166.542721 C117.585475,160.283418 116.914836,157.824406 116.914836,154.694755 C116.914836,151.565103 117.138382,149.776731 117.809022,147.764812 C118.479661,145.752894 118.032568,142.176149 121.832859,141.281963 C121.832859,141.281963 124.515418,141.058416 126.97443,141.50551 C129.433441,141.729056 132.786639,141.729056 132.786639,141.729056 C132.786639,141.729056 138.822396,144.635161 138.375303,146.64708 C137.92821,148.658999 137.481117,151.11801 137.704663,154.024115 C137.704663,154.024115 137.704663,155.588941 136.810477,157.377313 L132.116,166.766268 L132.116,161.848244 C132.116,159.836325 130.104081,157.824406 128.315709,157.824406 C126.527337,157.824406 124.291871,158.495046 122.950592,163.41307 C122.950592,163.41307 122.503499,164.083709 123.621232,169.225279 C124.962511,174.143303 126.750883,177.943594 130.998267,177.943594 C135.245651,177.943594 136.363384,173.249117 136.363384,171.460745 C136.363384,169.448826 137.704663,166.989814 138.375303,165.872081 C139.045942,164.754349 141.057861,160.059872 142.175594,157.377313 C143.516873,154.694755 145.528792,149.329638 145.528792,147.094173 C145.528792,141.50551 140.834315,132.787195 134.798558,132.787195 C128.762802,132.787195 124.962511,132.787195 121.16222,133.681381 C117.361929,134.575567 113.338091,135.6933 111.549719,135.916846 C109.761347,136.140393 109.5378,137.928765 108.867161,142.176149 C108.196521,146.423533 107.525881,148.658999 107.525881,151.565103 C107.525881,154.471208 107.749428,155.141848 107.525881,156.483127 C107.302335,157.824406 106.408149,159.612779 106.408149,162.965976 C106.408149,166.542721 107.078788,168.107547 108.643614,171.460745 C109.090707,172.578477 109.314254,174.813943 111.549719,177.272954 C111.549719,177.272954 113.785184,180.849699 115.126463,184.426443 C116.467743,188.003188 118.032568,190.238653 120.044487,192.697665 C122.056406,195.156677 123.397685,201.863073 128.762802,208.122376 C129.656988,209.240108 131.668907,213.040399 133.233732,215.275865 C134.798558,217.51133 135.245651,218.405516 139.716582,221.758714 C141.281408,223.099993 141.952047,224.441273 143.516873,226.006098 C144.858152,227.347377 154.917746,233.159587 161.177049,233.159587 C166.765712,233.159587 168.554084,230.253482 166.095073,228.018017 C163.636061,225.782552 160.506409,222.876447 158.718037,218.629063 C156.482572,214.158132 155.141293,208.569469 154.02356,206.110457 C152.905827,203.651445 151.341001,200.74534 150.223269,196.050863 C149.105536,191.356386 147.987804,186.885455 147.987804,181.967432 C147.987804,177.049408 148.658443,172.802024 151.788095,167.884 C156.035479,161.848244 156.929665,158.271499 156.929665,158.271499 C156.929665,158.271499 159.612223,155.365394 160.282863,151.565103 C165.424433,147.541266 171.683736,134.799114 171.683736,132.116555 C171.683736,129.433997 169.44827,129.21045 168.554084,126.974985 C167.883445,124.73952 163.859607,122.951147 162.741875,121.162775 C161.624142,119.374403 159.16513,114.456379 155.364839,114.456379 C152.458734,114.456379 153.129374,118.033124 148.434897,118.033124 C143.740419,118.033124 136.810477,117.809577 123.397685,113.1151 C123.397685,113.1151 121.832859,112.668007 118.032568,113.562193 C114.455824,114.456379 108.420068,114.679926 102.607858,115.350565 C96.7956479,115.797658 93.2189034,118.480217 92.5482638,124.06888 C91.8776242,129.657543 89.1950659,138.375858 89.1950659,146.870626 L89.1950659,168.778186 C89.1950659,177.049408 95.4543687,185.32063 96.3485549,187.779641 C96.3485549,187.779641 99.4782063,192.474119 104.843323,199.404061 C111.102626,207.004643 115.573557,211.475574 115.573557,211.475574 Z" id="Shape" fill="#FFFFFF" fill-rule="nonzero"></path>
        </g>
        <g id="Hyphen_Logomark" stroke-width="1">
            <g id="Hyphen_Mark">
                <rect id="Rectangle" fill="#000000" fill-rule="nonzero" x="0" y="0" width="400" height="400"></rect>
                <path d="M251,209 L251,290 L278,290 L278,224.527206 C278,214.434522 272.6,209 262.571429,209 L251,209 Z M251,187 L262.571429,187 C272.6,187 278,181.573807 278,171.496592 L278,110 L251,110 L251,187 Z M150,209 L138.428571,209 C128.4,209 123,214.434522 123,224.527206 L123,290 L150,290 L150,209 Z M150,187 L150,110 L123,110 L123,171.496592 C123,181.573807 128.4,187 138.428571,187 L150,187 Z M251,186 L149,186 L149,210 L251,210 L251,186 Z" id="Shape" fill="#F6F7F5" fill-rule="nonzero"></path>
            </g>
        </g>
    </g>
</svg>